<svg aria-hidden="true" style="position: absolute; width: 0; height: 0; overflow: hidden;" version="1.1" xmlns="http://www.w3.org/2000/svg" xmlns:xlink="http://www.w3.org/1999/xlink">
<defs>
<symbol id="icon-facebook-1" viewBox="0 0 17 32">
<path d="M11.642 32v-14.4h4.663l0.762-6.4h-5.425v-3.117c0-1.647 0.045-3.283 2.502-3.283h2.487v-4.576c0-0.068-2.138-0.224-4.301-0.224-4.514 0-7.341 2.652-7.341 7.52v3.68h-4.99v6.4h4.99v14.4h6.652z"></path>
</symbol>
<symbol id="icon-linkedin-1" viewBox="0 0 32 32">
<path d="M32 32h-6.154v-11.206c0-3.074-1.304-4.79-3.64-4.79-2.542 0-4.052 1.788-4.052 4.79v11.206h-6.154v-20.816h6.154v2.34s1.93-3.524 6.28-3.524c4.356 0 7.566 2.764 7.566 8.482v13.518zM3 6c-1.657 0-3-1.343-3-3s1.343-3 3-3v0c1.657 0 3 1.343 3 3s-1.343 3-3 3v0zM0 32h6v-20h-6v20z"></path>
</symbol>
<symbol id="icon-google-1" viewBox="0 0 32 32">
<path d="M31.714 12.807h-15.376c0 1.6 0 4.798-0.009 6.395h8.91c-0.343 1.6-1.554 3.84-3.264 4.965 0 0 0 0.011-0.005 0.009-2.274 1.502-5.275 1.842-7.504 1.394-3.458-0.719-6.215-3.165-7.359-6.377l-0.021-0.069c0.007-0.005 0.011-0.048 0.016-0.053-0.702-1.995-0.702-4.667 0-6.265 0.905-2.939 3.753-5.623 7.25-6.354 2.811-0.597 5.989 0.048 8.32 2.233 0.311-0.304 4.297-4.197 4.597-4.512-7.977-7.223-20.745-4.683-25.525 4.645l-0.009 0.018c-1.093 2.079-1.734 4.542-1.734 7.155 0 2.625 0.647 5.099 1.791 7.271l-0.041-0.085-0.016 0.014c2.138 4.058 5.825 7.058 10.254 8.237l0.114 0.026c4.816 1.264 10.949 0.4 15.056-3.314l0.005 0.005c3.479-3.131 5.646-8.473 4.551-15.337z"></path>
</symbol>
<symbol id="icon-search-1" viewBox="0 0 33 32">
<path d="M21.84 18.667h-1.053l-0.373-0.36c1.301-1.502 2.093-3.475 2.093-5.634 0-0.002 0-0.004 0-0.006v0c0-4.786-3.88-8.667-8.667-8.667s-8.667 3.88-8.667 8.667c0 4.786 3.88 8.667 8.667 8.667v0c2.147 0 4.12-0.787 5.64-2.093l0.36 0.373v1.053l6.667 6.653 1.987-1.987-6.653-6.667zM13.84 18.667c-3.32 0-6-2.68-6-6s2.68-6 6-6 6 2.68 6 6-2.68 6-6 6z"></path>
</symbol>
<symbol id="icon-Vector-1" viewBox="0 0 51 32">
<path d="M2.44 32h48.027v-5.333h-48.027v5.333zM2.44 18.667h48.027v-5.333h-48.027v5.333zM2.44 0v5.333h48.027v-5.333h-48.027z"></path>
</symbol>
<symbol id="icon-Union-1" viewBox="0 0 20 32">
<path d="M8.097 16.187l10 9.999c0.609 0.604 0.986 1.442 0.986 2.367 0 1.841-1.492 3.333-3.333 3.333-0.926 0-1.763-0.377-2.367-0.987l-12.407-12.406c-0.603-0.603-0.976-1.437-0.976-2.357 0-1.165 0.597-2.19 1.502-2.786l0.013-0.008 12.364-12.367c0.603-0.603 1.437-0.976 2.357-0.976 1.841 0 3.334 1.493 3.334 3.334 0 0.921-0.373 1.754-0.976 2.357l-10.496 10.495z"></path>
</symbol>
<symbol id="icon-cross" viewBox="0 0 32 32">
<path d="M31.708 25.708c-0-0-0-0-0-0l-9.708-9.708 9.708-9.708c0-0 0-0 0-0 0.105-0.105 0.18-0.227 0.229-0.357 0.133-0.356 0.057-0.771-0.229-1.057l-4.586-4.586c-0.286-0.286-0.702-0.361-1.057-0.229-0.13 0.048-0.252 0.124-0.357 0.228 0 0-0 0-0 0l-9.708 9.708-9.708-9.708c-0-0-0-0-0-0-0.105-0.104-0.227-0.18-0.357-0.228-0.356-0.133-0.771-0.057-1.057 0.229l-4.586 4.586c-0.286 0.286-0.361 0.702-0.229 1.057 0.049 0.13 0.124 0.252 0.229 0.357 0 0 0 0 0 0l9.708 9.708-9.708 9.708c-0 0-0 0-0 0-0.104 0.105-0.18 0.227-0.229 0.357-0.133 0.355-0.057 0.771 0.229 1.057l4.586 4.586c0.286 0.286 0.702 0.361 1.057 0.229 0.13-0.049 0.252-0.124 0.357-0.229 0-0 0-0 0-0l9.708-9.708 9.708 9.708c0 0 0 0 0 0 0.105 0.105 0.227 0.18 0.357 0.229 0.356 0.133 0.771 0.057 1.057-0.229l4.586-4.586c0.286-0.286 0.362-0.702 0.229-1.057-0.049-0.13-0.124-0.252-0.229-0.357z"></path>
</symbol>
    <symbol id="icon-phone" viewBox="0 0 32 32">
      <path d="M22 20c-2 2-2 4-4 4s-4-2-6-4-4-4-4-6 2-2 4-4-4-8-6-8-6 6-6 6c0 4 4.109 12.109 8 16s12 8 16 8c0 0 6-4 6-6s-6-8-8-6z"/>
    </symbol>
    <symbol id="icon-envelop" viewBox="0 0 32 32">
      <path d="M29 4H3C1.35 4 0 5.35 0 7v20c0 1.65 1.35 3 3 3h26c1.65 0 3-1.35 3-3V7c0-1.65-1.35-3-3-3zM12.461 17.199 4 23.789V8.113l8.461 9.086zM5.512 8h20.976L16 15.875 5.512 8zm7.278 9.553L16 21l3.21-3.447L25.79 26H6.211l6.58-8.447zm6.749-.354L28 8.113v15.676l-8.461-6.59z"/>
    </symbol>
</defs>
</svg>
